<?xml version="1.0" encoding="utf-8"?>
<!-- Generator: Adobe Illustrator 16.0.4, SVG Export Plug-In . SVG Version: 6.00 Build 0)  -->
<!DOCTYPE svg PUBLIC "-//W3C//DTD SVG 1.1//EN" "http://www.w3.org/Graphics/SVG/1.1/DTD/svg11.dtd">
<svg version="1.1" id="Layer_1" xmlns="http://www.w3.org/2000/svg" xmlns:xlink="http://www.w3.org/1999/xlink" x="0px" y="0px"
	 width="814px" height="233px" viewBox="0 0 814 233" enable-background="new 0 0 814 233" xml:space="preserve">
<g>
	<g>
		<g>
			<path fill="#797A7D" d="M208.012,181.982V166.16h3.387c0.758,0,1.451,0.139,2.079,0.413c0.63,0.275,1.167,0.681,1.616,1.216
				c0.448,0.538,0.795,1.201,1.042,1.99c0.247,0.79,0.372,1.694,0.372,2.717v3.162c0,1.021-0.125,1.927-0.372,2.717
				c-0.246,0.79-0.595,1.449-1.047,1.983c-0.451,0.531-0.996,0.935-1.634,1.212c-0.639,0.274-1.351,0.413-2.134,0.413H208.012z
				 M209.138,167.333v13.497h2.182c0.647,0,1.221-0.112,1.724-0.337c0.503-0.224,0.931-0.556,1.28-0.994
				c0.348-0.44,0.614-0.981,0.794-1.626c0.182-0.644,0.272-1.383,0.272-2.216v-3.196c0-0.847-0.092-1.589-0.276-2.227
				c-0.185-0.638-0.448-1.172-0.79-1.602c-0.343-0.431-0.761-0.756-1.255-0.974c-0.494-0.219-1.05-0.326-1.669-0.326H209.138z"/>
			<path fill="#797A7D" d="M226.295,178.092c0-0.436-0.05-0.822-0.153-1.158c-0.102-0.337-0.276-0.644-0.522-0.918
				c-0.248-0.276-0.579-0.53-0.994-0.761c-0.414-0.232-0.932-0.464-1.55-0.695c-0.606-0.226-1.152-0.47-1.636-0.734
				c-0.484-0.265-0.897-0.573-1.24-0.924c-0.342-0.352-0.606-0.761-0.79-1.229c-0.184-0.467-0.276-1.01-0.276-1.636
				c0-0.607,0.1-1.163,0.3-1.667c0.201-0.505,0.481-0.935,0.84-1.293c0.359-0.357,0.787-0.638,1.284-0.836
				c0.497-0.198,1.046-0.298,1.645-0.298c0.645,0,1.225,0.123,1.738,0.37c0.515,0.246,0.952,0.583,1.314,1.01
				c0.363,0.426,0.639,0.928,0.831,1.504c0.19,0.576,0.285,1.193,0.285,1.853h-1.136c0-0.514-0.067-0.989-0.203-1.423
				c-0.134-0.434-0.33-0.812-0.587-1.129c-0.256-0.32-0.572-0.568-0.948-0.745c-0.375-0.177-0.807-0.268-1.294-0.268
				c-0.488,0-0.914,0.077-1.28,0.229c-0.365,0.152-0.67,0.36-0.914,0.624c-0.244,0.265-0.428,0.573-0.553,0.924
				c-0.125,0.352-0.188,0.727-0.188,1.127c0,0.376,0.054,0.721,0.164,1.037c0.108,0.315,0.288,0.605,0.538,0.873
				c0.25,0.27,0.578,0.521,0.982,0.756c0.405,0.235,0.902,0.458,1.487,0.67c0.646,0.231,1.216,0.485,1.714,0.764
				c0.498,0.28,0.916,0.604,1.254,0.973c0.339,0.37,0.596,0.798,0.771,1.288c0.174,0.49,0.261,1.054,0.261,1.689
				c0,0.646-0.103,1.221-0.311,1.734c-0.208,0.51-0.497,0.944-0.865,1.298c-0.369,0.354-0.807,0.627-1.313,0.815
				c-0.507,0.188-1.064,0.282-1.669,0.282c-0.542,0-1.08-0.089-1.621-0.271c-0.54-0.182-1.023-0.462-1.452-0.842
				s-0.777-0.87-1.048-1.468c-0.27-0.598-0.404-1.315-0.404-2.156h1.126c0,0.667,0.1,1.229,0.301,1.685
				c0.2,0.456,0.462,0.825,0.786,1.109c0.323,0.282,0.686,0.483,1.092,0.608c0.404,0.122,0.811,0.184,1.22,0.184
				c0.46,0,0.877-0.069,1.25-0.211c0.372-0.142,0.688-0.34,0.948-0.596c0.26-0.259,0.46-0.568,0.602-0.93
				C226.225,178.947,226.295,178.542,226.295,178.092z"/>
			<path fill="#797A7D" d="M238.229,167.333h-4.089v14.648h-1.136v-14.648h-4.081v-1.174h9.306V167.333z"/>
			<path fill="#797A7D" d="M241.124,175.571h-3.99v-1.12h3.99V175.571z"/>
			<path fill="#797A7D" d="M252.523,181.982h-1.126l-6.788-13.475v13.475h-1.134V166.16h1.134l6.798,13.497V166.16h1.116V181.982z"
				/>
			<path fill="#797A7D" d="M260.416,175.397h-3.359v6.585h-1.136V166.16h3.942c0.639,0,1.213,0.102,1.724,0.305
				c0.51,0.202,0.942,0.502,1.298,0.896c0.355,0.395,0.63,0.881,0.821,1.462c0.189,0.579,0.286,1.246,0.286,1.999
				c0,0.522-0.06,1.01-0.177,1.468c-0.119,0.456-0.286,0.869-0.504,1.238c-0.217,0.37-0.479,0.69-0.785,0.961
				c-0.307,0.271-0.644,0.48-1.013,0.625l2.994,6.727v0.142h-1.206L260.416,175.397z M257.057,174.245h3.003
				c0.461,0,0.867-0.096,1.22-0.284c0.353-0.188,0.644-0.44,0.874-0.754c0.231-0.314,0.406-0.681,0.524-1.092
				c0.118-0.415,0.177-0.846,0.177-1.294c0-0.536-0.063-1.018-0.191-1.451c-0.129-0.431-0.32-0.796-0.573-1.098
				c-0.253-0.299-0.566-0.533-0.938-0.696c-0.372-0.162-0.802-0.243-1.289-0.243h-2.806V174.245z"/>
			<path fill="#797A7D" d="M273.723,174.615h-5.532v7.367h-1.125V166.16h7.487v1.174h-6.362v6.107h5.532V174.615z"/>
			<path fill="#797A7D" d="M290.15,177.048c-0.105,1.774-0.54,3.077-1.304,3.907c-0.764,0.83-1.822,1.243-3.171,1.243
				c-0.692,0-1.316-0.148-1.873-0.443c-0.556-0.299-1.029-0.727-1.416-1.283c-0.391-0.559-0.688-1.236-0.9-2.037
				c-0.21-0.801-0.316-1.704-0.316-2.71v-3.402c0-0.993,0.106-1.883,0.316-2.673c0.212-0.79,0.515-1.458,0.909-2.005
				c0.396-0.547,0.877-0.967,1.443-1.26c0.565-0.294,1.208-0.44,1.926-0.44c0.652,0,1.236,0.102,1.754,0.305
				c0.516,0.202,0.963,0.513,1.338,0.933c0.375,0.42,0.671,0.957,0.889,1.608c0.217,0.651,0.353,1.428,0.405,2.327h-1.146
				c-0.053-0.724-0.155-1.34-0.306-1.848c-0.153-0.507-0.361-0.921-0.628-1.238c-0.267-0.319-0.591-0.551-0.973-0.696
				c-0.382-0.145-0.826-0.219-1.333-0.219c-0.559,0-1.054,0.12-1.482,0.354c-0.428,0.236-0.788,0.575-1.082,1.017
				c-0.293,0.44-0.514,0.985-0.662,1.629c-0.148,0.646-0.223,1.374-0.223,2.184v3.425c0,0.802,0.071,1.532,0.213,2.188
				c0.142,0.656,0.352,1.215,0.631,1.679c0.28,0.464,0.629,0.823,1.048,1.077c0.417,0.252,0.907,0.379,1.467,0.379
				c0.527,0,0.988-0.065,1.383-0.2c0.396-0.134,0.728-0.357,0.998-0.668c0.27-0.311,0.482-0.722,0.637-1.232
				c0.155-0.511,0.259-1.145,0.312-1.897H290.15z"/>
			<path fill="#797A7D" d="M296.256,182.198c-0.592,0-1.136-0.104-1.63-0.32c-0.495-0.212-0.92-0.539-1.28-0.977
				c-0.359-0.439-0.638-0.992-0.834-1.657c-0.198-0.668-0.297-1.457-0.297-2.369v-1.338c0-0.984,0.105-1.827,0.316-2.526
				c0.211-0.699,0.493-1.272,0.845-1.717c0.352-0.445,0.761-0.77,1.225-0.978c0.465-0.208,0.954-0.31,1.467-0.31
				c1.172,0,2.063,0.425,2.672,1.277c0.609,0.852,0.914,2.153,0.914,3.907v1.021h-6.352v0.664c0,0.716,0.071,1.34,0.216,1.866
				c0.146,0.53,0.35,0.967,0.613,1.317c0.264,0.347,0.58,0.607,0.948,0.776c0.37,0.171,0.779,0.257,1.226,0.257
				c0.552,0,1.033-0.104,1.442-0.311c0.408-0.206,0.779-0.526,1.116-0.961l0.574,0.804c-0.145,0.215-0.315,0.419-0.509,0.606
				c-0.195,0.188-0.422,0.357-0.681,0.502c-0.26,0.145-0.555,0.258-0.884,0.342C297.033,182.158,296.663,182.198,296.256,182.198z
				 M296.068,171.137c-0.389,0-0.745,0.071-1.072,0.217c-0.326,0.145-0.61,0.374-0.849,0.69c-0.24,0.315-0.435,0.722-0.579,1.221
				c-0.145,0.5-0.23,1.105-0.256,1.815h5.245v-0.315c-0.013-0.571-0.071-1.081-0.177-1.531c-0.106-0.45-0.259-0.83-0.46-1.143
				c-0.201-0.311-0.456-0.548-0.766-0.711C296.845,171.219,296.482,171.137,296.068,171.137z"/>
			<path fill="#797A7D" d="M303.032,170.224l0.029,1.868c0.315-0.636,0.719-1.143,1.211-1.521c0.49-0.375,1.048-0.563,1.674-0.563
				c0.448,0,0.847,0.08,1.2,0.239c0.352,0.159,0.651,0.413,0.899,0.759c0.246,0.35,0.435,0.798,0.566,1.343
				c0.132,0.548,0.198,1.208,0.198,1.983v7.651h-1.086v-7.662c0-0.602-0.048-1.104-0.144-1.511c-0.095-0.405-0.232-0.73-0.41-0.973
				c-0.178-0.242-0.394-0.416-0.647-0.521c-0.254-0.105-0.539-0.157-0.854-0.157c-0.33,0-0.631,0.074-0.904,0.222
				c-0.273,0.149-0.519,0.347-0.736,0.591c-0.218,0.247-0.404,0.53-0.563,0.851c-0.158,0.317-0.286,0.651-0.384,0.998v8.162h-1.097
				v-11.758H303.032z"/>
			<path fill="#797A7D" d="M313.374,167.226v2.999h1.828v1.087h-1.828v7.813c0,0.405,0.032,0.733,0.095,0.982
				c0.062,0.251,0.146,0.443,0.252,0.582c0.105,0.137,0.226,0.231,0.36,0.277c0.135,0.046,0.279,0.071,0.43,0.071
				c0.145,0,0.287-0.012,0.424-0.039c0.139-0.026,0.261-0.049,0.367-0.071l0.029,1.086c-0.12,0.058-0.275,0.104-0.469,0.135
				c-0.194,0.034-0.397,0.049-0.607,0.049c-0.283,0-0.546-0.049-0.786-0.151c-0.24-0.102-0.449-0.271-0.627-0.511
				c-0.177-0.239-0.315-0.555-0.415-0.952c-0.099-0.395-0.147-0.884-0.147-1.473v-7.8h-1.651v-1.087h1.651v-2.999H313.374z"/>
			<path fill="#797A7D" d="M321.78,171.354c-0.111-0.023-0.222-0.04-0.33-0.054c-0.108-0.015-0.229-0.023-0.36-0.023
				c-0.323,0-0.614,0.063-0.875,0.189c-0.259,0.128-0.489,0.305-0.686,0.533c-0.197,0.229-0.367,0.502-0.509,0.823
				c-0.141,0.317-0.252,0.665-0.331,1.041v8.119h-1.097v-11.758h1.077l0.02,1.76c0.244-0.616,0.565-1.1,0.968-1.451
				c0.402-0.351,0.896-0.527,1.481-0.527c0.119,0,0.243,0.014,0.375,0.043c0.132,0.029,0.228,0.062,0.287,0.099L321.78,171.354z"/>
			<path fill="#797A7D" d="M327.047,182.198c-0.593,0-1.137-0.104-1.63-0.32c-0.494-0.212-0.921-0.539-1.28-0.977
				c-0.358-0.439-0.637-0.992-0.834-1.657c-0.196-0.668-0.296-1.457-0.296-2.369v-1.338c0-0.984,0.105-1.827,0.316-2.526
				c0.211-0.699,0.492-1.272,0.845-1.717c0.353-0.445,0.761-0.77,1.225-0.978s0.954-0.31,1.466-0.31
				c1.173,0,2.064,0.425,2.673,1.277c0.609,0.852,0.915,2.153,0.915,3.907v1.021h-6.353v0.664c0,0.716,0.073,1.34,0.218,1.866
				c0.145,0.53,0.349,0.967,0.613,1.317c0.264,0.347,0.579,0.607,0.948,0.776c0.369,0.171,0.777,0.257,1.225,0.257
				c0.552,0,1.033-0.104,1.441-0.311c0.41-0.206,0.781-0.526,1.116-0.961l0.574,0.804c-0.145,0.215-0.315,0.419-0.509,0.606
				c-0.195,0.188-0.422,0.357-0.682,0.502c-0.26,0.145-0.556,0.258-0.885,0.342C327.824,182.158,327.454,182.198,327.047,182.198z
				 M326.858,171.137c-0.388,0-0.745,0.071-1.071,0.217c-0.326,0.145-0.61,0.374-0.85,0.69c-0.24,0.315-0.434,0.722-0.579,1.221
				c-0.145,0.5-0.229,1.105-0.255,1.815h5.245v-0.315c-0.014-0.571-0.072-1.081-0.179-1.531c-0.105-0.45-0.258-0.83-0.458-1.143
				c-0.202-0.311-0.458-0.548-0.766-0.711C327.635,171.219,327.273,171.137,326.858,171.137z"/>
			<path fill="#797A7D" d="M336.906,175.505c0-0.89,0.095-1.677,0.286-2.358c0.191-0.681,0.458-1.255,0.801-1.723
				c0.342-0.465,0.751-0.819,1.23-1.06c0.477-0.237,1.005-0.357,1.584-0.357c0.587,0,1.12,0.12,1.6,0.357
				c0.48,0.24,0.893,0.594,1.236,1.06c0.342,0.468,0.607,1.042,0.795,1.723s0.281,1.468,0.281,2.358v1.216
				c0,0.892-0.093,1.679-0.281,2.359s-0.453,1.25-0.795,1.711c-0.343,0.46-0.753,0.809-1.229,1.049
				c-0.479,0.239-1.006,0.357-1.586,0.357c-0.586,0-1.12-0.119-1.6-0.357c-0.481-0.24-0.893-0.588-1.235-1.049
				c-0.343-0.46-0.609-1.03-0.801-1.711c-0.19-0.681-0.286-1.467-0.286-2.359V175.505z M338.012,176.721
				c0,0.675,0.063,1.278,0.188,1.816c0.125,0.536,0.307,0.992,0.548,1.369c0.24,0.375,0.535,0.667,0.884,0.869
				c0.35,0.203,0.749,0.305,1.196,0.305c0.475,0,0.885-0.102,1.234-0.305c0.35-0.202,0.639-0.493,0.87-0.869
				c0.231-0.377,0.404-0.833,0.518-1.369c0.116-0.538,0.173-1.141,0.173-1.816v-1.216c0-0.659-0.062-1.26-0.188-1.799
				c-0.125-0.539-0.308-1-0.548-1.38s-0.536-0.673-0.884-0.879c-0.35-0.207-0.749-0.31-1.196-0.31c-0.44,0-0.834,0.103-1.18,0.31
				s-0.639,0.499-0.879,0.879c-0.241,0.38-0.423,0.841-0.548,1.38c-0.125,0.539-0.188,1.14-0.188,1.799V176.721z"/>
			<path fill="#797A7D" d="M347.97,181.982v-10.671h-1.472v-1.087h1.472v-1.445c0-1.203,0.24-2.124,0.721-2.761
				c0.48-0.638,1.146-0.957,1.995-0.957c0.171,0,0.347,0.016,0.528,0.045c0.181,0.029,0.357,0.075,0.529,0.142l-0.08,1.109
				c-0.131-0.037-0.27-0.066-0.414-0.089c-0.146-0.02-0.304-0.031-0.475-0.031c-0.534,0-0.951,0.219-1.25,0.656
				c-0.298,0.439-0.449,1.067-0.449,1.886v1.445h2.094v1.087h-2.094v10.671H347.97z"/>
			<path fill="#797A7D" d="M364.812,174.408h-5.581v6.422h6.421v1.152h-7.547V166.16h7.498v1.174h-6.372v5.923h5.581V174.408z"/>
			<path fill="#797A7D" d="M370.789,174.972l2.341-4.748h1.294l-3.032,5.771l3.15,5.987h-1.283l-2.459-4.945l-2.47,4.945h-1.284
				l3.141-5.987l-3.022-5.771h1.284L370.789,174.972z"/>
			<path fill="#797A7D" d="M379.798,181.08c0.302,0,0.597-0.043,0.879-0.131c0.283-0.086,0.535-0.235,0.756-0.445
				c0.22-0.209,0.401-0.49,0.543-0.844c0.142-0.35,0.222-0.79,0.241-1.318h1.058c-0.026,0.63-0.135,1.186-0.326,1.668
				c-0.19,0.482-0.444,0.882-0.76,1.206c-0.316,0.323-0.678,0.566-1.087,0.733c-0.408,0.167-0.843,0.25-1.303,0.25
				c-1.285,0-2.25-0.456-2.9-1.368c-0.648-0.915-0.973-2.269-0.973-4.065v-1.325c0-1.795,0.324-3.151,0.973-4.065
				c0.65-0.912,1.612-1.368,2.89-1.368c0.488,0,0.94,0.086,1.358,0.256c0.419,0.169,0.781,0.426,1.086,0.77
				c0.307,0.345,0.552,0.779,0.736,1.304c0.185,0.525,0.286,1.144,0.306,1.853h-1.058c-0.019-0.543-0.095-1.007-0.226-1.395
				c-0.132-0.388-0.305-0.706-0.519-0.952c-0.213-0.247-0.463-0.425-0.751-0.538c-0.286-0.112-0.597-0.168-0.933-0.168
				c-0.507,0-0.935,0.096-1.284,0.287c-0.349,0.194-0.632,0.474-0.85,0.844c-0.217,0.368-0.375,0.819-0.474,1.352
				c-0.099,0.533-0.148,1.14-0.148,1.82v1.325c0,0.69,0.048,1.301,0.143,1.839c0.096,0.534,0.252,0.985,0.469,1.352
				c0.217,0.365,0.502,0.644,0.854,0.836C378.851,180.984,379.284,181.08,379.798,181.08z"/>
			<path fill="#797A7D" d="M389.124,182.198c-0.592,0-1.136-0.104-1.63-0.32c-0.494-0.212-0.92-0.539-1.28-0.977
				c-0.359-0.439-0.638-0.992-0.834-1.657c-0.197-0.668-0.297-1.457-0.297-2.369v-1.338c0-0.984,0.105-1.827,0.317-2.526
				c0.211-0.699,0.493-1.272,0.845-1.717c0.352-0.445,0.761-0.77,1.225-0.978c0.464-0.208,0.953-0.31,1.467-0.31
				c1.172,0,2.063,0.425,2.673,1.277c0.608,0.852,0.913,2.153,0.913,3.907v1.021h-6.352v0.664c0,0.716,0.072,1.34,0.216,1.866
				c0.146,0.53,0.35,0.967,0.613,1.317c0.263,0.347,0.58,0.607,0.948,0.776c0.37,0.171,0.778,0.257,1.226,0.257
				c0.553,0,1.033-0.104,1.442-0.311c0.408-0.206,0.779-0.526,1.116-0.961l0.574,0.804c-0.145,0.215-0.315,0.419-0.509,0.606
				c-0.194,0.188-0.421,0.357-0.682,0.502c-0.26,0.145-0.555,0.258-0.884,0.342C389.9,182.158,389.531,182.198,389.124,182.198z
				 M388.936,171.137c-0.389,0-0.746,0.071-1.072,0.217c-0.326,0.145-0.61,0.374-0.85,0.69c-0.24,0.315-0.434,0.722-0.579,1.221
				c-0.145,0.5-0.229,1.105-0.256,1.815h5.246v-0.315c-0.013-0.571-0.072-1.081-0.178-1.531c-0.106-0.45-0.259-0.83-0.46-1.143
				c-0.201-0.311-0.456-0.548-0.765-0.711C389.712,171.219,389.35,171.137,388.936,171.137z"/>
			<path fill="#797A7D" d="M396.077,181.982h-1.105v-16.691h1.105V181.982z"/>
			<path fill="#797A7D" d="M400.335,181.982h-1.107v-16.691h1.107V181.982z"/>
			<path fill="#797A7D" d="M406.895,182.198c-0.592,0-1.137-0.104-1.629-0.32c-0.496-0.212-0.921-0.539-1.28-0.977
				c-0.358-0.439-0.636-0.992-0.835-1.657c-0.198-0.668-0.297-1.457-0.297-2.369v-1.338c0-0.984,0.106-1.827,0.317-2.526
				c0.209-0.699,0.493-1.272,0.844-1.717c0.352-0.445,0.761-0.77,1.226-0.978c0.466-0.208,0.954-0.31,1.467-0.31
				c1.173,0,2.063,0.425,2.673,1.277c0.607,0.852,0.912,2.153,0.912,3.907v1.021h-6.352v0.664c0,0.716,0.071,1.34,0.218,1.866
				c0.145,0.53,0.35,0.967,0.611,1.317c0.265,0.347,0.582,0.607,0.948,0.776c0.37,0.171,0.779,0.257,1.227,0.257
				c0.553,0,1.034-0.104,1.441-0.311c0.409-0.206,0.78-0.526,1.116-0.961l0.574,0.804c-0.145,0.215-0.314,0.419-0.51,0.606
				c-0.192,0.188-0.42,0.357-0.681,0.502c-0.26,0.145-0.556,0.258-0.886,0.342C407.672,182.158,407.303,182.198,406.895,182.198z
				 M406.707,171.137c-0.389,0-0.746,0.071-1.072,0.217c-0.325,0.145-0.609,0.374-0.85,0.69c-0.24,0.315-0.434,0.722-0.578,1.221
				c-0.145,0.5-0.229,1.105-0.257,1.815h5.245v-0.315c-0.013-0.571-0.07-1.081-0.176-1.531c-0.107-0.45-0.26-0.83-0.46-1.143
				c-0.202-0.311-0.456-0.548-0.766-0.711C407.484,171.219,407.122,171.137,406.707,171.137z"/>
			<path fill="#797A7D" d="M413.671,170.224l0.03,1.868c0.314-0.636,0.72-1.143,1.209-1.521c0.49-0.375,1.049-0.563,1.675-0.563
				c0.447,0,0.848,0.08,1.201,0.239c0.351,0.159,0.651,0.413,0.897,0.759c0.248,0.35,0.436,0.798,0.568,1.343
				c0.133,0.548,0.197,1.208,0.197,1.983v7.651h-1.084v-7.662c0-0.602-0.05-1.104-0.146-1.511c-0.095-0.405-0.23-0.73-0.409-0.973
				c-0.179-0.242-0.395-0.416-0.646-0.521c-0.256-0.105-0.539-0.157-0.855-0.157c-0.331,0-0.631,0.074-0.903,0.222
				c-0.274,0.149-0.52,0.347-0.736,0.591c-0.219,0.247-0.405,0.53-0.563,0.851c-0.159,0.317-0.287,0.651-0.386,0.998v8.162h-1.097
				v-11.758H413.671z"/>
			<path fill="#797A7D" d="M425.741,181.08c0.304,0,0.598-0.043,0.881-0.131c0.282-0.086,0.535-0.235,0.755-0.445
				c0.221-0.209,0.402-0.49,0.544-0.844c0.142-0.35,0.222-0.79,0.241-1.318h1.059c-0.026,0.63-0.136,1.186-0.326,1.668
				c-0.191,0.482-0.445,0.882-0.762,1.206c-0.315,0.323-0.677,0.566-1.087,0.733c-0.408,0.167-0.843,0.25-1.305,0.25
				c-1.282,0-2.25-0.456-2.898-1.368c-0.649-0.915-0.973-2.269-0.973-4.065v-1.325c0-1.795,0.323-3.151,0.973-4.065
				c0.648-0.912,1.613-1.368,2.89-1.368c0.486,0,0.94,0.086,1.358,0.256c0.417,0.169,0.78,0.426,1.086,0.77
				c0.308,0.345,0.553,0.779,0.737,1.304s0.285,1.144,0.307,1.853h-1.059c-0.02-0.543-0.095-1.007-0.226-1.395
				c-0.133-0.388-0.306-0.706-0.52-0.952c-0.214-0.247-0.465-0.425-0.751-0.538c-0.285-0.112-0.598-0.168-0.934-0.168
				c-0.508,0-0.935,0.096-1.284,0.287c-0.35,0.194-0.632,0.474-0.849,0.844c-0.219,0.368-0.376,0.819-0.477,1.352
				c-0.097,0.533-0.146,1.14-0.146,1.82v1.325c0,0.69,0.046,1.301,0.143,1.839c0.095,0.534,0.251,0.985,0.469,1.352
				c0.217,0.365,0.502,0.644,0.854,0.836C424.795,180.984,425.229,181.08,425.741,181.08z"/>
			<path fill="#797A7D" d="M435.068,182.198c-0.592,0-1.136-0.104-1.63-0.32c-0.494-0.212-0.921-0.539-1.281-0.977
				c-0.357-0.439-0.636-0.992-0.833-1.657c-0.197-0.668-0.297-1.457-0.297-2.369v-1.338c0-0.984,0.104-1.827,0.316-2.526
				c0.21-0.699,0.493-1.272,0.845-1.717c0.353-0.445,0.761-0.77,1.224-0.978c0.466-0.208,0.954-0.31,1.468-0.31
				c1.172,0,2.062,0.425,2.672,1.277c0.61,0.852,0.915,2.153,0.915,3.907v1.021h-6.353v0.664c0,0.716,0.072,1.34,0.217,1.866
				c0.146,0.53,0.35,0.967,0.613,1.317c0.264,0.347,0.579,0.607,0.947,0.776c0.369,0.171,0.777,0.257,1.226,0.257
				c0.553,0,1.033-0.104,1.443-0.311c0.406-0.206,0.779-0.526,1.115-0.961l0.572,0.804c-0.143,0.215-0.314,0.419-0.508,0.606
				c-0.194,0.188-0.422,0.357-0.683,0.502c-0.26,0.145-0.555,0.258-0.884,0.342C435.844,182.158,435.477,182.198,435.068,182.198z
				 M434.88,171.137c-0.388,0-0.745,0.071-1.071,0.217c-0.327,0.145-0.61,0.374-0.849,0.69c-0.24,0.315-0.435,0.722-0.579,1.221
				c-0.145,0.5-0.231,1.105-0.258,1.815h5.247v-0.315c-0.014-0.571-0.073-1.081-0.179-1.531s-0.259-0.83-0.459-1.143
				c-0.201-0.311-0.457-0.548-0.765-0.711C435.656,171.219,435.295,171.137,434.88,171.137z"/>
			<path fill="#797A7D" d="M445.303,166.834c0-0.247,0.062-0.458,0.187-0.631c0.125-0.173,0.304-0.26,0.533-0.26
				c0.23,0,0.411,0.087,0.539,0.26c0.128,0.174,0.192,0.385,0.192,0.631c0,0.245-0.064,0.454-0.192,0.625
				c-0.128,0.169-0.309,0.254-0.539,0.254c-0.229,0-0.408-0.085-0.533-0.254C445.365,167.289,445.303,167.079,445.303,166.834z
				 M446.566,181.982h-1.106v-11.758h1.106V181.982z"/>
			<path fill="#797A7D" d="M450.647,170.224l0.029,1.868c0.315-0.636,0.719-1.143,1.21-1.521c0.49-0.375,1.049-0.563,1.674-0.563
				c0.448,0,0.848,0.08,1.2,0.239c0.351,0.159,0.652,0.413,0.899,0.759c0.246,0.35,0.436,0.798,0.566,1.343
				c0.134,0.548,0.197,1.208,0.197,1.983v7.651h-1.086v-7.662c0-0.602-0.048-1.104-0.144-1.511c-0.095-0.405-0.23-0.73-0.409-0.973
				c-0.179-0.242-0.395-0.416-0.646-0.521c-0.255-0.105-0.539-0.157-0.855-0.157c-0.329,0-0.63,0.074-0.903,0.222
				c-0.272,0.149-0.518,0.347-0.736,0.591c-0.217,0.247-0.403,0.53-0.562,0.851c-0.158,0.317-0.286,0.651-0.385,0.998v8.162H449.6
				v-11.758H450.647z"/>
			<path fill="#797A7D" d="M470.828,174.408h-5.58v6.422h6.421v1.152h-7.548V166.16h7.498v1.174h-6.371v5.923h5.58V174.408z"/>
			<path fill="#797A7D" d="M481.23,176.657c0,0.949-0.077,1.771-0.232,2.467c-0.155,0.696-0.377,1.271-0.667,1.728
				c-0.289,0.456-0.648,0.795-1.078,1.017c-0.426,0.22-0.911,0.33-1.452,0.33c-0.644,0-1.195-0.142-1.653-0.428
				c-0.458-0.286-0.83-0.687-1.12-1.201v5.932h-1.087v-16.276h1.007l0.05,1.607c0.297-0.571,0.671-1.018,1.125-1.341
				c0.455-0.323,1.005-0.483,1.649-0.483c0.555,0,1.045,0.104,1.475,0.314c0.426,0.211,0.788,0.539,1.085,0.99
				c0.296,0.448,0.521,1.024,0.672,1.72c0.152,0.701,0.228,1.543,0.228,2.529V176.657z M480.133,175.56
				c0-1.506-0.213-2.616-0.637-3.326c-0.423-0.71-1.088-1.066-1.991-1.066c-0.335,0-0.636,0.054-0.902,0.159
				c-0.268,0.104-0.5,0.248-0.7,0.43c-0.202,0.18-0.374,0.388-0.516,0.619c-0.143,0.231-0.263,0.478-0.359,0.739v6.194
				c0.104,0.254,0.234,0.487,0.39,0.706c0.154,0.219,0.333,0.406,0.537,0.565s0.438,0.283,0.698,0.37
				c0.26,0.088,0.551,0.131,0.873,0.131c0.891,0,1.548-0.36,1.971-1.081c0.424-0.721,0.637-1.835,0.637-3.342V175.56z"/>
			<path fill="#797A7D" d="M483.739,166.834c0-0.247,0.063-0.458,0.188-0.631c0.124-0.173,0.302-0.26,0.532-0.26
				c0.231,0,0.41,0.087,0.538,0.26c0.129,0.174,0.193,0.385,0.193,0.631c0,0.245-0.064,0.454-0.193,0.625
				c-0.128,0.169-0.307,0.254-0.538,0.254c-0.23,0-0.408-0.085-0.532-0.254C483.803,167.289,483.739,167.079,483.739,166.834z
				 M485.004,181.982h-1.105v-11.758h1.105V181.982z"/>
			<path fill="#797A7D" d="M487.641,175.56c0-0.985,0.081-1.828,0.243-2.529c0.16-0.696,0.395-1.272,0.696-1.72
				c0.303-0.451,0.671-0.779,1.101-0.99c0.432-0.209,0.915-0.314,1.448-0.314c0.637,0,1.181,0.157,1.624,0.473
				c0.444,0.316,0.809,0.755,1.092,1.32v-6.508h1.097v16.691h-1.027l-0.051-1.511c-0.281,0.544-0.648,0.967-1.1,1.271
				c-0.452,0.305-0.999,0.456-1.645,0.456c-0.534,0-1.015-0.109-1.443-0.33c-0.428-0.222-0.791-0.561-1.092-1.017
				c-0.299-0.457-0.531-1.032-0.695-1.728c-0.165-0.696-0.248-1.519-0.248-2.467V175.56z M488.759,176.657
				c0,1.506,0.204,2.615,0.615,3.325s1.067,1.064,1.962,1.064c0.322,0,0.613-0.045,0.874-0.136c0.26-0.091,0.492-0.217,0.702-0.38
				c0.206-0.162,0.387-0.354,0.537-0.574c0.151-0.222,0.283-0.462,0.396-0.724v-6.095c-0.099-0.262-0.222-0.511-0.364-0.749
				c-0.146-0.24-0.319-0.45-0.52-0.625c-0.201-0.179-0.436-0.322-0.702-0.432c-0.265-0.107-0.569-0.163-0.911-0.163
				c-0.904,0-1.562,0.357-1.974,1.072c-0.411,0.713-0.615,1.82-0.615,3.32V176.657z"/>
			<path fill="#797A7D" d="M501.432,182.198c-0.593,0-1.137-0.104-1.631-0.32c-0.493-0.212-0.92-0.539-1.278-0.977
				c-0.359-0.439-0.638-0.992-0.835-1.657c-0.197-0.668-0.297-1.457-0.297-2.369v-1.338c0-0.984,0.105-1.827,0.317-2.526
				c0.211-0.699,0.491-1.272,0.844-1.717c0.353-0.445,0.761-0.77,1.224-0.978c0.467-0.208,0.955-0.31,1.468-0.31
				c1.172,0,2.063,0.425,2.674,1.277c0.608,0.852,0.913,2.153,0.913,3.907v1.021h-6.353v0.664c0,0.716,0.072,1.34,0.217,1.866
				c0.146,0.53,0.349,0.967,0.613,1.317c0.265,0.347,0.581,0.607,0.947,0.776c0.369,0.171,0.779,0.257,1.226,0.257
				c0.553,0,1.035-0.104,1.441-0.311c0.41-0.206,0.782-0.526,1.117-0.961l0.574,0.804c-0.145,0.215-0.316,0.419-0.51,0.606
				c-0.194,0.188-0.422,0.357-0.681,0.502c-0.262,0.145-0.556,0.258-0.884,0.342C502.209,182.158,501.84,182.198,501.432,182.198z
				 M501.243,171.137c-0.388,0-0.745,0.071-1.071,0.217c-0.325,0.145-0.61,0.374-0.849,0.69c-0.242,0.315-0.433,0.722-0.579,1.221
				c-0.145,0.5-0.231,1.105-0.258,1.815h5.247v-0.315c-0.014-0.571-0.072-1.081-0.179-1.531c-0.104-0.45-0.258-0.83-0.457-1.143
				c-0.202-0.311-0.457-0.548-0.767-0.711C502.021,171.219,501.658,171.137,501.243,171.137z"/>
			<path fill="#797A7D" d="M508.169,170.224l0.031,1.76c0.303-0.601,0.691-1.081,1.169-1.441c0.477-0.357,1.042-0.536,1.695-0.536
				c0.638,0,1.19,0.172,1.654,0.518c0.463,0.342,0.801,0.89,1.013,1.645c0.144-0.311,0.317-0.602,0.52-0.869
				c0.2-0.268,0.43-0.496,0.685-0.685c0.258-0.189,0.538-0.337,0.84-0.445c0.304-0.107,0.633-0.163,0.988-0.163
				c0.469,0,0.885,0.082,1.251,0.245c0.365,0.162,0.673,0.419,0.927,0.772c0.254,0.351,0.447,0.797,0.578,1.341
				c0.132,0.543,0.198,1.195,0.198,1.956v7.662h-1.097v-7.672c0-0.616-0.051-1.125-0.154-1.531
				c-0.102-0.406-0.246-0.731-0.436-0.973c-0.187-0.243-0.411-0.411-0.674-0.505c-0.264-0.095-0.555-0.142-0.871-0.142
				c-0.396,0.006-0.745,0.103-1.047,0.288c-0.304,0.183-0.559,0.42-0.77,0.707c-0.211,0.285-0.375,0.606-0.49,0.961
				c-0.115,0.354-0.185,0.702-0.211,1.042v7.825h-1.107v-7.771c0-0.579-0.049-1.064-0.152-1.455
				c-0.102-0.391-0.248-0.704-0.436-0.939c-0.187-0.236-0.413-0.403-0.676-0.505c-0.264-0.103-0.555-0.152-0.871-0.152
				c-0.354,0-0.671,0.074-0.946,0.222c-0.277,0.149-0.518,0.345-0.721,0.588c-0.205,0.242-0.376,0.522-0.517,0.841
				c-0.137,0.32-0.244,0.648-0.324,0.989v8.184h-1.096v-11.758H508.169z"/>
			<path fill="#797A7D" d="M522.542,166.834c0-0.247,0.063-0.458,0.187-0.631c0.125-0.173,0.304-0.26,0.534-0.26
				c0.231,0,0.411,0.087,0.538,0.26c0.129,0.174,0.193,0.385,0.193,0.631c0,0.245-0.064,0.454-0.193,0.625
				c-0.127,0.169-0.307,0.254-0.538,0.254c-0.23,0-0.409-0.085-0.534-0.254C522.605,167.289,522.542,167.079,522.542,166.834z
				 M523.807,181.982h-1.105v-11.758h1.105V181.982z"/>
			<path fill="#797A7D" d="M526.425,175.505c0-0.89,0.094-1.677,0.285-2.358c0.192-0.681,0.459-1.255,0.801-1.723
				c0.343-0.465,0.753-0.819,1.23-1.06c0.478-0.237,1.005-0.357,1.584-0.357c0.587,0,1.12,0.12,1.602,0.357
				c0.479,0.24,0.893,0.594,1.234,1.06c0.342,0.468,0.608,1.042,0.796,1.723s0.28,1.468,0.28,2.358v1.216
				c0,0.892-0.093,1.679-0.28,2.359s-0.454,1.25-0.796,1.711s-0.752,0.809-1.229,1.049c-0.478,0.239-1.007,0.357-1.586,0.357
				c-0.585,0-1.12-0.119-1.601-0.357c-0.48-0.24-0.892-0.588-1.234-1.049c-0.342-0.46-0.608-1.03-0.801-1.711
				c-0.191-0.681-0.285-1.467-0.285-2.359V175.505z M527.53,176.721c0,0.675,0.062,1.278,0.188,1.816
				c0.124,0.536,0.308,0.992,0.548,1.369c0.24,0.375,0.536,0.667,0.884,0.869c0.349,0.203,0.749,0.305,1.195,0.305
				c0.475,0,0.886-0.102,1.235-0.305c0.35-0.202,0.639-0.493,0.87-0.869c0.23-0.377,0.403-0.833,0.518-1.369
				c0.116-0.538,0.172-1.141,0.172-1.816v-1.216c0-0.659-0.062-1.26-0.187-1.799c-0.126-0.539-0.308-1-0.548-1.38
				c-0.242-0.38-0.534-0.673-0.886-0.879c-0.348-0.207-0.747-0.31-1.195-0.31c-0.44,0-0.833,0.103-1.181,0.31
				c-0.344,0.207-0.638,0.499-0.878,0.879s-0.424,0.841-0.548,1.38c-0.127,0.539-0.188,1.14-0.188,1.799V176.721z"/>
			<path fill="#797A7D" d="M537.992,181.982h-1.106v-16.691h1.106V181.982z"/>
			<path fill="#797A7D" d="M540.61,175.505c0-0.89,0.094-1.677,0.284-2.358c0.192-0.681,0.459-1.255,0.801-1.723
				c0.344-0.465,0.754-0.819,1.23-1.06c0.478-0.237,1.006-0.357,1.585-0.357c0.587,0,1.12,0.12,1.602,0.357
				c0.479,0.24,0.892,0.594,1.233,1.06c0.342,0.468,0.608,1.042,0.797,1.723c0.188,0.681,0.281,1.468,0.281,2.358v1.216
				c0,0.892-0.094,1.679-0.281,2.359c-0.188,0.681-0.455,1.25-0.797,1.711s-0.751,0.809-1.229,1.049
				c-0.478,0.239-1.007,0.357-1.586,0.357c-0.586,0-1.12-0.119-1.601-0.357c-0.48-0.24-0.892-0.588-1.235-1.049
				c-0.342-0.46-0.608-1.03-0.801-1.711c-0.19-0.681-0.284-1.467-0.284-2.359V175.505z M541.716,176.721
				c0,0.675,0.062,1.278,0.188,1.816c0.125,0.536,0.309,0.992,0.549,1.369c0.24,0.375,0.535,0.667,0.884,0.869
				c0.35,0.203,0.748,0.305,1.195,0.305c0.474,0,0.885-0.102,1.234-0.305c0.35-0.202,0.64-0.493,0.87-0.869
				c0.229-0.377,0.404-0.833,0.518-1.369c0.117-0.538,0.174-1.141,0.174-1.816v-1.216c0-0.659-0.062-1.26-0.188-1.799
				s-0.308-1-0.548-1.38c-0.242-0.38-0.535-0.673-0.886-0.879c-0.349-0.207-0.747-0.31-1.195-0.31c-0.44,0-0.833,0.103-1.181,0.31
				c-0.344,0.207-0.638,0.499-0.878,0.879s-0.424,0.841-0.549,1.38c-0.126,0.539-0.188,1.14-0.188,1.799V176.721z"/>
			<path fill="#797A7D" d="M550.567,175.56c0-0.985,0.079-1.828,0.237-2.529c0.157-0.696,0.386-1.272,0.686-1.72
				c0.301-0.451,0.665-0.779,1.098-0.99c0.43-0.209,0.917-0.314,1.456-0.314c0.652,0,1.202,0.163,1.65,0.49
				c0.447,0.325,0.812,0.781,1.097,1.368l0.059-1.64h1.018v12.04c0,0.768-0.084,1.429-0.252,1.983
				c-0.166,0.553-0.408,1.01-0.72,1.369c-0.313,0.357-0.691,0.622-1.132,0.792c-0.441,0.172-0.937,0.256-1.482,0.256
				c-0.27,0-0.55-0.036-0.84-0.108c-0.289-0.072-0.574-0.179-0.854-0.32c-0.281-0.142-0.545-0.311-0.796-0.511
				s-0.465-0.428-0.644-0.69l0.516-0.869c0.368,0.462,0.768,0.81,1.195,1.038c0.427,0.228,0.876,0.342,1.345,0.342
				c0.414,0,0.78-0.059,1.101-0.174c0.319-0.115,0.586-0.302,0.798-0.559c0.214-0.259,0.378-0.592,0.49-1
				c0.113-0.412,0.168-0.909,0.168-1.496v-1.803c-0.282,0.528-0.648,0.941-1.096,1.24c-0.449,0.295-0.991,0.443-1.631,0.443
				c-0.532,0-1.015-0.109-1.441-0.33c-0.43-0.222-0.793-0.561-1.092-1.017c-0.3-0.457-0.529-1.032-0.691-1.728
				c-0.162-0.696-0.242-1.519-0.242-2.467V175.56z M551.674,176.657c0,1.506,0.208,2.615,0.622,3.325s1.065,1.064,1.956,1.064
				c0.329,0,0.625-0.046,0.889-0.14c0.265-0.094,0.497-0.225,0.702-0.391c0.204-0.167,0.382-0.362,0.532-0.587
				c0.152-0.225,0.28-0.471,0.386-0.739v-6.009c-0.099-0.268-0.219-0.523-0.359-0.767c-0.144-0.241-0.314-0.456-0.516-0.641
				c-0.2-0.185-0.433-0.331-0.701-0.44c-0.267-0.107-0.571-0.163-0.914-0.163c-0.899,0-1.561,0.357-1.975,1.072
				c-0.414,0.713-0.622,1.82-0.622,3.32V176.657z"/>
			<path fill="#797A7D" d="M560.752,166.834c0-0.247,0.063-0.458,0.187-0.631c0.126-0.173,0.304-0.26,0.534-0.26
				c0.231,0,0.411,0.087,0.539,0.26c0.128,0.174,0.192,0.385,0.192,0.631c0,0.245-0.064,0.454-0.192,0.625
				c-0.128,0.169-0.308,0.254-0.539,0.254c-0.23,0-0.408-0.085-0.534-0.254C560.815,167.289,560.752,167.079,560.752,166.834z
				 M562.017,181.982h-1.105v-11.758h1.105V181.982z"/>
			<path fill="#797A7D" d="M568.428,181.08c0.304,0,0.596-0.043,0.879-0.131c0.284-0.086,0.536-0.235,0.755-0.445
				c0.222-0.209,0.402-0.49,0.544-0.844c0.143-0.35,0.223-0.79,0.241-1.318h1.059c-0.026,0.63-0.136,1.186-0.327,1.668
				c-0.19,0.482-0.444,0.882-0.761,1.206c-0.315,0.323-0.677,0.566-1.087,0.733c-0.406,0.167-0.843,0.25-1.303,0.25
				c-1.284,0-2.25-0.456-2.9-1.368c-0.648-0.915-0.973-2.269-0.973-4.065v-1.325c0-1.795,0.324-3.151,0.973-4.065
				c0.65-0.912,1.613-1.368,2.89-1.368c0.488,0,0.94,0.086,1.359,0.256c0.418,0.169,0.779,0.426,1.086,0.77
				c0.309,0.345,0.552,0.779,0.736,1.304s0.286,1.144,0.307,1.853h-1.059c-0.019-0.543-0.094-1.007-0.226-1.395
				c-0.133-0.388-0.306-0.706-0.52-0.952c-0.213-0.247-0.464-0.425-0.751-0.538c-0.285-0.112-0.597-0.168-0.934-0.168
				c-0.507,0-0.935,0.096-1.284,0.287c-0.349,0.194-0.632,0.474-0.849,0.844c-0.218,0.368-0.376,0.819-0.475,1.352
				c-0.097,0.533-0.147,1.14-0.147,1.82v1.325c0,0.69,0.047,1.301,0.143,1.839c0.096,0.534,0.251,0.985,0.469,1.352
				c0.219,0.365,0.502,0.644,0.854,0.836C567.48,180.984,567.913,181.08,568.428,181.08z"/>
			<path fill="#797A7D" d="M579.876,181.982c-0.052-0.197-0.095-0.44-0.128-0.733c-0.032-0.294-0.055-0.593-0.068-0.898
				c-0.139,0.247-0.303,0.48-0.495,0.701c-0.19,0.222-0.409,0.417-0.656,0.588c-0.247,0.169-0.523,0.305-0.825,0.407
				c-0.303,0.102-0.63,0.151-0.977,0.151c-0.441,0-0.844-0.068-1.201-0.205c-0.358-0.137-0.668-0.345-0.924-0.621
				c-0.257-0.274-0.454-0.619-0.591-1.032c-0.139-0.413-0.21-0.895-0.21-1.444c0-0.545,0.086-1.044,0.257-1.506
				c0.171-0.46,0.427-0.856,0.766-1.189c0.339-0.333,0.763-0.594,1.271-0.782c0.507-0.188,1.097-0.283,1.769-0.283h1.808v-1.642
				c0-0.839-0.189-1.442-0.568-1.808c-0.379-0.365-0.935-0.548-1.666-0.548c-0.342,0-0.656,0.059-0.942,0.174
				c-0.285,0.116-0.531,0.276-0.735,0.482c-0.204,0.206-0.361,0.453-0.474,0.739c-0.112,0.286-0.17,0.601-0.17,0.941l-1.095-0.011
				c0-0.458,0.082-0.894,0.245-1.309c0.166-0.416,0.4-0.786,0.702-1.103c0.303-0.32,0.668-0.573,1.097-0.761
				c0.428-0.188,0.902-0.283,1.423-0.283c0.48,0,0.921,0.063,1.318,0.189c0.398,0.128,0.742,0.331,1.031,0.61
				c0.291,0.279,0.517,0.641,0.678,1.085c0.162,0.445,0.243,0.987,0.243,1.625v5.999c0,0.203,0.005,0.413,0.019,0.63
				c0.014,0.217,0.032,0.43,0.056,0.636c0.021,0.207,0.053,0.4,0.088,0.587c0.037,0.183,0.077,0.347,0.125,0.482v0.132H579.876z
				 M576.864,181.037c0.342,0,0.662-0.052,0.962-0.157c0.301-0.104,0.568-0.25,0.806-0.436c0.237-0.187,0.443-0.4,0.618-0.648
				c0.174-0.244,0.313-0.508,0.42-0.792v-2.858h-1.649c-1.035,0-1.812,0.24-2.332,0.718c-0.521,0.477-0.78,1.124-0.78,1.934
				c0,0.774,0.173,1.343,0.519,1.7C575.772,180.856,576.251,181.037,576.864,181.037z"/>
			<path fill="#797A7D" d="M584.976,181.982h-1.107v-16.691h1.107V181.982z"/>
			<path fill="#797A7D" d="M594.28,166.16l4.356,13.919l4.377-13.919h1.491v15.822h-1.126v-6.879l0.099-6.878l-4.406,13.757h-0.87
				l-4.386-13.692l0.1,6.813v6.879h-1.126V166.16H594.28z"/>
			<path fill="#797A7D" d="M607.26,175.505c0-0.89,0.096-1.677,0.286-2.358c0.191-0.681,0.458-1.255,0.8-1.723
				c0.343-0.465,0.753-0.819,1.23-1.06c0.478-0.237,1.006-0.357,1.586-0.357c0.585,0,1.12,0.12,1.601,0.357
				c0.48,0.24,0.892,0.594,1.234,1.06c0.342,0.468,0.608,1.042,0.795,1.723c0.188,0.681,0.282,1.468,0.282,2.358v1.216
				c0,0.892-0.095,1.679-0.282,2.359c-0.187,0.681-0.453,1.25-0.795,1.711c-0.343,0.46-0.751,0.809-1.23,1.049
				c-0.478,0.239-1.005,0.357-1.584,0.357c-0.589,0-1.12-0.119-1.601-0.357c-0.48-0.24-0.894-0.588-1.236-1.049
				c-0.342-0.46-0.608-1.03-0.8-1.711c-0.19-0.681-0.286-1.467-0.286-2.359V175.505z M608.367,176.721
				c0,0.675,0.062,1.278,0.188,1.816c0.125,0.536,0.307,0.992,0.547,1.369c0.24,0.375,0.534,0.667,0.884,0.869
				c0.35,0.203,0.749,0.305,1.197,0.305c0.473,0,0.885-0.102,1.233-0.305c0.35-0.202,0.641-0.493,0.87-0.869
				c0.229-0.377,0.403-0.833,0.518-1.369c0.115-0.538,0.174-1.141,0.174-1.816v-1.216c0-0.659-0.062-1.26-0.188-1.799
				c-0.126-0.539-0.306-1-0.548-1.38c-0.24-0.38-0.536-0.673-0.884-0.879c-0.35-0.207-0.749-0.31-1.195-0.31
				c-0.442,0-0.835,0.103-1.182,0.31c-0.345,0.207-0.639,0.499-0.879,0.879s-0.422,0.841-0.547,1.38
				c-0.126,0.539-0.188,1.14-0.188,1.799V176.721z"/>
			<path fill="#797A7D" d="M617.207,175.56c0-0.985,0.081-1.828,0.243-2.529c0.16-0.696,0.393-1.272,0.696-1.72
				c0.303-0.451,0.67-0.779,1.1-0.99c0.433-0.209,0.916-0.314,1.449-0.314c0.638,0,1.18,0.157,1.624,0.473
				c0.444,0.316,0.809,0.755,1.093,1.32v-6.508h1.096v16.691h-1.028l-0.05-1.511c-0.281,0.544-0.648,0.967-1.101,1.271
				c-0.451,0.305-1,0.456-1.644,0.456c-0.534,0-1.015-0.109-1.442-0.33c-0.429-0.222-0.794-0.561-1.093-1.017
				c-0.3-0.457-0.532-1.032-0.695-1.728c-0.167-0.696-0.248-1.519-0.248-2.467V175.56z M618.323,176.657
				c0,1.506,0.206,2.615,0.618,3.325c0.411,0.71,1.065,1.064,1.96,1.064c0.323,0,0.614-0.045,0.875-0.136
				c0.26-0.091,0.492-0.217,0.702-0.38c0.206-0.162,0.387-0.354,0.537-0.574c0.151-0.222,0.283-0.462,0.396-0.724v-6.095
				c-0.099-0.262-0.223-0.511-0.365-0.749c-0.146-0.24-0.319-0.45-0.52-0.625c-0.201-0.179-0.436-0.322-0.702-0.432
				c-0.267-0.107-0.571-0.163-0.913-0.163c-0.902,0-1.56,0.357-1.971,1.072c-0.412,0.713-0.618,1.82-0.618,3.32V176.657z"/>
			<path fill="#797A7D" d="M630.999,182.198c-0.593,0-1.136-0.104-1.631-0.32c-0.494-0.212-0.921-0.539-1.279-0.977
				c-0.357-0.439-0.636-0.992-0.835-1.657c-0.197-0.668-0.296-1.457-0.296-2.369v-1.338c0-0.984,0.106-1.827,0.317-2.526
				c0.21-0.699,0.491-1.272,0.844-1.717c0.352-0.445,0.761-0.77,1.225-0.978c0.465-0.208,0.955-0.31,1.468-0.31
				c1.172,0,2.062,0.425,2.672,1.277c0.608,0.852,0.913,2.153,0.913,3.907v1.021h-6.353v0.664c0,0.716,0.072,1.34,0.219,1.866
				c0.144,0.53,0.348,0.967,0.611,1.317c0.264,0.347,0.581,0.607,0.949,0.776c0.369,0.171,0.777,0.257,1.226,0.257
				c0.551,0,1.033-0.104,1.441-0.311c0.409-0.206,0.779-0.526,1.116-0.961l0.573,0.804c-0.145,0.215-0.314,0.419-0.508,0.606
				c-0.194,0.188-0.423,0.357-0.683,0.502c-0.261,0.145-0.556,0.258-0.886,0.342C631.775,182.158,631.407,182.198,630.999,182.198z
				 M630.812,171.137c-0.388,0-0.747,0.071-1.072,0.217c-0.326,0.145-0.609,0.374-0.85,0.69c-0.24,0.315-0.435,0.722-0.577,1.221
				c-0.146,0.5-0.231,1.105-0.258,1.815h5.245v-0.315c-0.012-0.571-0.072-1.081-0.177-1.531c-0.106-0.45-0.26-0.83-0.46-1.143
				c-0.2-0.311-0.458-0.548-0.766-0.711C631.588,171.219,631.226,171.137,630.812,171.137z"/>
			<path fill="#797A7D" d="M637.953,181.982h-1.106v-16.691h1.106V181.982z"/>
			<path fill="#797A7D" d="M642.209,181.982h-1.105v-16.691h1.105V181.982z"/>
			<path fill="#797A7D" d="M645.203,166.834c0-0.247,0.063-0.458,0.188-0.631c0.125-0.173,0.304-0.26,0.533-0.26
				s0.411,0.087,0.539,0.26c0.129,0.174,0.194,0.385,0.194,0.631c0,0.245-0.065,0.454-0.194,0.625
				c-0.128,0.169-0.31,0.254-0.539,0.254s-0.408-0.085-0.533-0.254C645.267,167.289,645.203,167.079,645.203,166.834z
				 M646.466,181.982h-1.104v-11.758h1.104V181.982z"/>
			<path fill="#797A7D" d="M650.547,170.224l0.029,1.868c0.317-0.636,0.72-1.143,1.211-1.521c0.491-0.375,1.049-0.563,1.676-0.563
				c0.446,0,0.847,0.08,1.199,0.239c0.352,0.159,0.651,0.413,0.899,0.759c0.246,0.35,0.436,0.798,0.568,1.343
				c0.131,0.548,0.195,1.208,0.195,1.983v7.651h-1.086v-7.662c0-0.602-0.048-1.104-0.143-1.511c-0.096-0.405-0.231-0.73-0.41-0.973
				c-0.179-0.242-0.393-0.416-0.646-0.521c-0.254-0.105-0.538-0.157-0.854-0.157c-0.33,0-0.63,0.074-0.906,0.222
				c-0.271,0.149-0.518,0.347-0.734,0.591c-0.217,0.247-0.405,0.53-0.563,0.851c-0.157,0.317-0.285,0.651-0.385,0.998v8.162H649.5
				v-11.758H650.547z"/>
			<path fill="#797A7D" d="M658.855,175.56c0-0.985,0.079-1.828,0.237-2.529c0.157-0.696,0.387-1.272,0.687-1.72
				c0.301-0.451,0.666-0.779,1.097-0.99c0.432-0.209,0.917-0.314,1.457-0.314c0.653,0,1.201,0.163,1.649,0.49
				c0.446,0.325,0.813,0.781,1.097,1.368l0.06-1.64h1.019v12.04c0,0.768-0.087,1.429-0.253,1.983
				c-0.168,0.553-0.408,1.01-0.721,1.369c-0.312,0.357-0.691,0.622-1.132,0.792c-0.442,0.172-0.937,0.256-1.481,0.256
				c-0.27,0-0.55-0.036-0.84-0.108c-0.289-0.072-0.574-0.179-0.854-0.32s-0.545-0.311-0.796-0.511c-0.25-0.2-0.464-0.428-0.641-0.69
				l0.513-0.869c0.369,0.462,0.767,0.81,1.195,1.038c0.428,0.228,0.876,0.342,1.344,0.342c0.415,0,0.781-0.059,1.102-0.174
				c0.318-0.115,0.585-0.302,0.799-0.559c0.215-0.259,0.378-0.592,0.49-1c0.112-0.412,0.166-0.909,0.166-1.496v-1.803
				c-0.281,0.528-0.646,0.941-1.095,1.24c-0.448,0.295-0.99,0.443-1.631,0.443c-0.533,0-1.014-0.109-1.441-0.33
				c-0.428-0.222-0.793-0.561-1.091-1.017c-0.3-0.457-0.531-1.032-0.692-1.728c-0.162-0.696-0.242-1.519-0.242-2.467V175.56z
				 M659.963,176.657c0,1.506,0.208,2.615,0.622,3.325s1.065,1.064,1.956,1.064c0.328,0,0.625-0.046,0.889-0.14
				c0.264-0.094,0.496-0.225,0.7-0.391c0.205-0.167,0.384-0.362,0.535-0.587c0.15-0.225,0.28-0.471,0.383-0.739v-6.009
				c-0.099-0.268-0.217-0.523-0.358-0.767c-0.144-0.241-0.312-0.456-0.515-0.641c-0.202-0.185-0.435-0.331-0.702-0.44
				c-0.267-0.107-0.57-0.163-0.913-0.163c-0.901,0-1.561,0.357-1.975,1.072c-0.414,0.713-0.622,1.82-0.622,3.32V176.657z"/>
			<path fill="#797A7D" d="M679.273,181.982c-0.053-0.197-0.096-0.44-0.128-0.733c-0.032-0.294-0.056-0.593-0.069-0.898
				c-0.139,0.247-0.302,0.48-0.494,0.701c-0.191,0.222-0.41,0.417-0.656,0.588c-0.246,0.169-0.523,0.305-0.825,0.407
				c-0.304,0.102-0.63,0.151-0.977,0.151c-0.442,0-0.844-0.068-1.201-0.205c-0.36-0.137-0.667-0.345-0.924-0.621
				c-0.258-0.274-0.454-0.619-0.593-1.032c-0.138-0.413-0.208-0.895-0.208-1.444c0-0.545,0.086-1.044,0.257-1.506
				c0.171-0.46,0.427-0.856,0.766-1.189c0.339-0.333,0.762-0.594,1.271-0.782c0.507-0.188,1.097-0.283,1.768-0.283h1.809v-1.642
				c0-0.839-0.189-1.442-0.568-1.808c-0.379-0.365-0.934-0.548-1.667-0.548c-0.34,0-0.655,0.059-0.942,0.174
				c-0.286,0.116-0.531,0.276-0.735,0.482c-0.204,0.206-0.361,0.453-0.475,0.739c-0.111,0.286-0.168,0.601-0.168,0.941l-1.095-0.011
				c0-0.458,0.081-0.894,0.246-1.309c0.165-0.416,0.398-0.786,0.7-1.103c0.304-0.32,0.669-0.573,1.097-0.761
				c0.429-0.188,0.903-0.283,1.423-0.283c0.48,0,0.922,0.063,1.318,0.189c0.399,0.128,0.742,0.331,1.032,0.61
				c0.291,0.279,0.518,0.641,0.678,1.085c0.161,0.445,0.243,0.987,0.243,1.625v5.999c0,0.203,0.005,0.413,0.019,0.63
				c0.014,0.217,0.032,0.43,0.056,0.636c0.021,0.207,0.052,0.4,0.088,0.587c0.037,0.183,0.078,0.347,0.124,0.482v0.132H679.273z
				 M676.261,181.037c0.343,0,0.663-0.052,0.965-0.157c0.298-0.104,0.567-0.25,0.804-0.436c0.237-0.187,0.443-0.4,0.617-0.648
				c0.174-0.244,0.314-0.508,0.421-0.792v-2.858h-1.651c-1.033,0-1.81,0.24-2.33,0.718c-0.521,0.477-0.78,1.124-0.78,1.934
				c0,0.774,0.172,1.343,0.519,1.7C675.169,180.856,675.648,181.037,676.261,181.037z"/>
			<path fill="#797A7D" d="M684.195,170.224l0.027,1.868c0.316-0.636,0.72-1.143,1.213-1.521c0.489-0.375,1.049-0.563,1.674-0.563
				c0.448,0,0.847,0.08,1.198,0.239c0.353,0.159,0.651,0.413,0.9,0.759c0.245,0.35,0.435,0.798,0.567,1.343
				c0.132,0.548,0.196,1.208,0.196,1.983v7.651h-1.085v-7.662c0-0.602-0.048-1.104-0.144-1.511c-0.097-0.405-0.232-0.73-0.409-0.973
				c-0.179-0.242-0.395-0.416-0.648-0.521c-0.253-0.105-0.538-0.157-0.854-0.157c-0.33,0-0.632,0.074-0.904,0.222
				c-0.273,0.149-0.519,0.347-0.736,0.591c-0.217,0.247-0.404,0.53-0.563,0.851c-0.158,0.317-0.286,0.651-0.383,0.998v8.162h-1.099
				v-11.758H684.195z"/>
			<path fill="#797A7D" d="M692.491,175.56c0-0.985,0.08-1.828,0.244-2.529c0.16-0.696,0.393-1.272,0.695-1.72
				c0.304-0.451,0.67-0.779,1.1-0.99c0.433-0.209,0.917-0.314,1.449-0.314c0.638,0,1.18,0.157,1.625,0.473
				c0.443,0.316,0.809,0.755,1.092,1.32v-6.508h1.097v16.691h-1.029l-0.049-1.511c-0.282,0.544-0.648,0.967-1.102,1.271
				c-0.451,0.305-0.999,0.456-1.643,0.456c-0.534,0-1.015-0.109-1.441-0.33c-0.43-0.222-0.795-0.561-1.094-1.017
				c-0.299-0.457-0.533-1.032-0.696-1.728c-0.164-0.696-0.248-1.519-0.248-2.467V175.56z M693.608,176.657
				c0,1.506,0.206,2.615,0.619,3.325c0.409,0.71,1.063,1.064,1.959,1.064c0.323,0,0.615-0.045,0.874-0.136
				c0.261-0.091,0.493-0.217,0.702-0.38c0.207-0.162,0.387-0.354,0.538-0.574c0.15-0.222,0.283-0.462,0.396-0.724v-6.095
				c-0.099-0.262-0.222-0.511-0.365-0.749c-0.146-0.24-0.318-0.45-0.519-0.625c-0.2-0.179-0.435-0.322-0.702-0.432
				c-0.267-0.107-0.571-0.163-0.913-0.163c-0.902,0-1.561,0.357-1.97,1.072c-0.413,0.713-0.619,1.82-0.619,3.32V176.657z"/>
			<path fill="#797A7D" d="M714.077,177.559h-5.394l-1.226,4.423h-1.176l4.584-15.822h1.047l4.583,15.822h-1.175L714.077,177.559z
				 M709.009,176.395h4.741l-2.37-8.486L709.009,176.395z"/>
			<path fill="#797A7D" d="M719.44,170.224l0.029,1.868c0.316-0.636,0.72-1.143,1.211-1.521c0.489-0.375,1.049-0.563,1.676-0.563
				c0.446,0,0.847,0.08,1.199,0.239c0.352,0.159,0.651,0.413,0.897,0.759c0.247,0.35,0.437,0.798,0.568,1.343
				c0.131,0.548,0.197,1.208,0.197,1.983v7.651h-1.086v-7.662c0-0.602-0.047-1.104-0.145-1.511c-0.094-0.405-0.229-0.73-0.408-0.973
				c-0.179-0.242-0.394-0.416-0.648-0.521c-0.252-0.105-0.537-0.157-0.853-0.157c-0.33,0-0.632,0.074-0.906,0.222
				c-0.272,0.149-0.517,0.347-0.735,0.591c-0.216,0.247-0.404,0.53-0.562,0.851c-0.157,0.317-0.286,0.651-0.385,0.998v8.162h-1.097
				v-11.758H719.44z"/>
			<path fill="#797A7D" d="M733.784,181.982c-0.052-0.197-0.097-0.44-0.127-0.733c-0.033-0.294-0.058-0.593-0.069-0.898
				c-0.141,0.247-0.304,0.48-0.495,0.701c-0.19,0.222-0.409,0.417-0.655,0.588c-0.248,0.169-0.524,0.305-0.827,0.407
				c-0.302,0.102-0.629,0.151-0.977,0.151c-0.442,0-0.843-0.068-1.201-0.205c-0.359-0.137-0.667-0.345-0.923-0.621
				c-0.257-0.274-0.456-0.619-0.594-1.032c-0.138-0.413-0.207-0.895-0.207-1.444c0-0.545,0.086-1.044,0.258-1.506
				c0.171-0.46,0.426-0.856,0.765-1.189c0.339-0.333,0.763-0.594,1.27-0.782s1.098-0.283,1.768-0.283h1.809v-1.642
				c0-0.839-0.189-1.442-0.568-1.808c-0.379-0.365-0.934-0.548-1.665-0.548c-0.342,0-0.656,0.059-0.942,0.174
				c-0.288,0.116-0.531,0.276-0.736,0.482c-0.203,0.206-0.36,0.453-0.475,0.739c-0.112,0.286-0.168,0.601-0.168,0.941l-1.095-0.011
				c0-0.458,0.082-0.894,0.245-1.309c0.165-0.416,0.398-0.786,0.702-1.103c0.304-0.32,0.668-0.573,1.097-0.761
				c0.428-0.188,0.9-0.283,1.423-0.283c0.479,0,0.919,0.063,1.318,0.189c0.397,0.128,0.742,0.331,1.031,0.61
				c0.29,0.279,0.517,0.641,0.677,1.085c0.163,0.445,0.243,0.987,0.243,1.625v5.999c0,0.203,0.006,0.413,0.02,0.63
				c0.015,0.217,0.031,0.43,0.055,0.636c0.022,0.207,0.052,0.4,0.088,0.587c0.036,0.183,0.078,0.347,0.124,0.482v0.132H733.784z
				 M730.771,181.037c0.342,0,0.664-0.052,0.964-0.157c0.299-0.104,0.568-0.25,0.805-0.436c0.238-0.187,0.443-0.4,0.619-0.648
				c0.174-0.244,0.313-0.508,0.419-0.792v-2.858h-1.649c-1.034,0-1.812,0.24-2.332,0.718c-0.519,0.477-0.781,1.124-0.781,1.934
				c0,0.774,0.175,1.343,0.52,1.7C729.681,180.856,730.159,181.037,730.771,181.037z"/>
			<path fill="#797A7D" d="M738.881,181.982h-1.106v-16.691h1.106V181.982z"/>
			<path fill="#797A7D" d="M744.759,179.992l2.549-9.768h1.175l-3.764,13.637c-0.078,0.268-0.179,0.57-0.296,0.903
				c-0.118,0.333-0.275,0.644-0.474,0.933c-0.197,0.29-0.44,0.536-0.726,0.734c-0.288,0.199-0.635,0.299-1.043,0.299
				c-0.06,0-0.124-0.004-0.197-0.017c-0.072-0.009-0.147-0.025-0.223-0.037c-0.077-0.016-0.146-0.032-0.213-0.049
				c-0.066-0.019-0.117-0.034-0.157-0.049l-0.009-1.109c0.062,0.021,0.15,0.04,0.26,0.056c0.109,0.014,0.189,0.021,0.242,0.021
				c0.264,0,0.496-0.046,0.696-0.136c0.201-0.091,0.38-0.225,0.534-0.403c0.154-0.177,0.291-0.397,0.409-0.662
				c0.119-0.265,0.224-0.57,0.316-0.918l0.416-1.521l-3.359-11.681h1.204L744.759,179.992z"/>
			<path fill="#797A7D" d="M755.724,179.091c0-0.238-0.041-0.463-0.123-0.674c-0.083-0.211-0.219-0.413-0.405-0.608
				c-0.188-0.195-0.436-0.394-0.74-0.598c-0.307-0.203-0.687-0.42-1.142-0.653c-0.487-0.237-0.922-0.468-1.304-0.69
				c-0.382-0.22-0.702-0.459-0.963-0.716c-0.26-0.257-0.459-0.547-0.598-0.871c-0.139-0.322-0.209-0.704-0.209-1.146
				c0-0.435,0.075-0.842,0.223-1.223c0.149-0.379,0.362-0.712,0.638-0.995c0.276-0.282,0.613-0.505,1.008-0.667
				c0.396-0.163,0.836-0.245,1.322-0.245c0.521,0,0.989,0.086,1.403,0.256c0.417,0.169,0.767,0.406,1.054,0.711
				c0.286,0.303,0.505,0.668,0.655,1.092c0.151,0.423,0.227,0.885,0.227,1.384h-1.095c0-0.303-0.05-0.594-0.147-0.873
				c-0.101-0.279-0.245-0.525-0.435-0.741c-0.192-0.212-0.427-0.382-0.701-0.51c-0.278-0.126-0.598-0.189-0.961-0.189
				c-0.374,0-0.694,0.056-0.958,0.168c-0.263,0.112-0.48,0.26-0.651,0.445c-0.171,0.185-0.296,0.396-0.374,0.631
				c-0.078,0.234-0.12,0.472-0.12,0.712c0,0.238,0.032,0.45,0.101,0.634c0.064,0.185,0.185,0.365,0.36,0.539
				c0.174,0.174,0.409,0.353,0.706,0.536c0.295,0.186,0.678,0.402,1.146,0.648c0.492,0.239,0.938,0.47,1.332,0.695
				c0.395,0.225,0.731,0.474,1.002,0.745c0.274,0.271,0.485,0.578,0.634,0.918c0.147,0.34,0.222,0.746,0.222,1.217
				c0,0.486-0.079,0.924-0.237,1.315c-0.157,0.391-0.384,0.724-0.677,1c-0.292,0.276-0.645,0.488-1.058,0.636
				c-0.411,0.148-0.867,0.222-1.367,0.222c-0.579,0-1.091-0.092-1.531-0.276c-0.441-0.186-0.812-0.433-1.111-0.744
				c-0.299-0.314-0.525-0.674-0.681-1.087c-0.156-0.413-0.233-0.852-0.233-1.315h1.107c0.019,0.463,0.106,0.844,0.262,1.14
				c0.154,0.299,0.347,0.533,0.576,0.708c0.231,0.172,0.488,0.292,0.771,0.359c0.283,0.063,0.563,0.097,0.84,0.097
				c0.361,0,0.684-0.052,0.964-0.157c0.278-0.105,0.513-0.248,0.701-0.425c0.188-0.177,0.329-0.387,0.425-0.628
				C755.676,179.626,755.724,179.367,755.724,179.091z"/>
			<path fill="#797A7D" d="M759.369,166.834c0-0.247,0.062-0.458,0.188-0.631c0.124-0.173,0.303-0.26,0.532-0.26
				c0.231,0,0.411,0.087,0.539,0.26c0.13,0.174,0.192,0.385,0.192,0.631c0,0.245-0.062,0.454-0.192,0.625
				c-0.128,0.169-0.308,0.254-0.539,0.254c-0.229,0-0.408-0.085-0.532-0.254C759.431,167.289,759.369,167.079,759.369,166.834z
				 M760.634,181.982h-1.105v-11.758h1.105V181.982z"/>
			<path fill="#797A7D" d="M769.01,179.091c0-0.238-0.041-0.463-0.123-0.674c-0.083-0.211-0.217-0.413-0.403-0.608
				c-0.189-0.195-0.436-0.394-0.742-0.598c-0.307-0.203-0.688-0.42-1.14-0.653c-0.488-0.237-0.924-0.468-1.305-0.69
				c-0.384-0.22-0.704-0.459-0.964-0.716c-0.261-0.257-0.459-0.547-0.597-0.871c-0.14-0.322-0.209-0.704-0.209-1.146
				c0-0.435,0.074-0.842,0.224-1.223c0.147-0.379,0.36-0.712,0.638-0.995c0.275-0.282,0.611-0.505,1.005-0.667
				c0.397-0.163,0.838-0.245,1.325-0.245c0.519,0,0.986,0.086,1.402,0.256c0.416,0.169,0.766,0.406,1.052,0.711
				c0.288,0.303,0.506,0.668,0.658,1.092c0.15,0.423,0.226,0.885,0.226,1.384h-1.096c0-0.303-0.05-0.594-0.146-0.873
				c-0.101-0.279-0.245-0.525-0.436-0.741c-0.191-0.212-0.426-0.382-0.701-0.51c-0.277-0.126-0.598-0.189-0.959-0.189
				c-0.376,0-0.693,0.056-0.958,0.168c-0.266,0.112-0.48,0.26-0.651,0.445c-0.171,0.185-0.298,0.396-0.376,0.631
				c-0.079,0.234-0.119,0.472-0.119,0.712c0,0.238,0.034,0.45,0.099,0.634c0.066,0.185,0.187,0.365,0.362,0.539
				c0.173,0.174,0.408,0.353,0.705,0.536c0.296,0.186,0.678,0.402,1.146,0.648c0.493,0.239,0.938,0.47,1.336,0.695
				c0.393,0.225,0.729,0.474,1.001,0.745c0.274,0.271,0.483,0.578,0.633,0.918c0.146,0.34,0.222,0.746,0.222,1.217
				c0,0.486-0.078,0.924-0.237,1.315c-0.157,0.391-0.384,0.724-0.678,1c-0.292,0.276-0.646,0.488-1.055,0.636
				c-0.413,0.148-0.868,0.222-1.369,0.222c-0.58,0-1.09-0.092-1.53-0.276c-0.442-0.186-0.813-0.433-1.112-0.744
				c-0.301-0.314-0.526-0.674-0.683-1.087c-0.153-0.413-0.232-0.852-0.232-1.315h1.107c0.019,0.463,0.106,0.844,0.262,1.14
				c0.154,0.299,0.349,0.533,0.578,0.708c0.23,0.172,0.487,0.292,0.77,0.359c0.283,0.063,0.563,0.097,0.841,0.097
				c0.362,0,0.683-0.052,0.963-0.157c0.28-0.105,0.514-0.248,0.7-0.425c0.188-0.177,0.331-0.387,0.426-0.628
				C768.962,179.626,769.01,179.367,769.01,179.091z"/>
		</g>
	</g>
	<g>
		<g>
			<path fill="#E03127" d="M50.528,70.419c-2.131-0.621-4.389,0.613-5.018,2.741L35.123,108.27
				c-0.629,2.128,0.597,4.383,2.724,5.013l35.164,10.4c2.128,0.63,3.354,2.886,2.725,5.014L65.293,164
				c-0.629,2.127,0.597,4.383,2.724,5.011l35.162,10.402c2.128,0.63,4.384-0.596,5.014-2.723l10.428-35.248
				c0.63-2.128,0.14-5.381-1.088-7.229L83.249,82.65c-1.229-1.848-3.977-3.869-6.108-4.488L50.528,70.419z"/>
		</g>
		<g>
			<path fill="#F7941E" d="M158.987,149.324c2.128,0.631,4.383-0.591,5.013-2.72l10.446-35.307c0.629-2.128-0.597-4.383-2.724-5.013
				l-35.165-10.397c-2.127-0.628-3.354-2.886-2.725-5.013l10.441-35.314c0.629-2.128-0.598-4.383-2.726-5.011l-35.161-10.396
				c-2.128-0.628-4.356,0.605-4.953,2.743l-7.882,28.266c-0.596,2.138-0.357,5.55,0.531,7.584l24.11,55.245
				c0.888,2.033,3.354,4.213,5.482,4.846L158.987,149.324z"/>
		</g>
		<g>
			<path fill="#99241B" d="M85.458,35.549c9.121,6.355,11.372,18.939,5.018,28.096c-6.357,9.159-18.908,11.434-28.029,5.082
				c-9.123-6.357-11.369-18.939-5.017-28.099C63.779,31.473,76.334,29.19,85.458,35.549z"/>
		</g>
		<g>
			<path fill="#E03127" d="M173.516,61.81c9.123,6.354,11.367,18.939,5.018,28.1c-6.355,9.151-18.906,11.428-28.026,5.076
				c-9.125-6.355-11.373-18.933-5.013-28.093C151.843,57.732,164.389,55.457,173.516,61.81z"/>
		</g>
		<g>
			<path fill="#F7941E" d="M147.543,150.385c9.119,6.353,11.371,18.935,5.015,28.09c-6.358,9.168-18.902,11.442-28.026,5.083
				c-9.122-6.355-11.369-18.936-5.018-28.093C125.874,146.303,138.416,144.026,147.543,150.385z"/>
		</g>
		<g>
			<path fill="#731305" d="M58.944,124.961c9.125,6.355,11.371,18.933,5.021,28.093c-6.358,9.163-18.906,11.433-28.031,5.082
				c-9.125-6.354-11.368-18.937-5.007-28.093C37.276,120.879,49.821,118.608,58.944,124.961z"/>
		</g>
	</g>
	<g>
		<path fill="#99241B" d="M269.747,71.549c-0.642,1.09-1.905,1.188-2.857,0.354c0,0-2.255-2.757-8.918-5.62
			c-4.414-1.896-9.419-2.764-14.955-2.764c-8.345,0-14.406,1.558-18.181,4.675c-3.777,3.12-5.665,7.358-5.665,12.715
			c0,2.811,0.503,5.119,1.517,6.917c1.008,1.802,2.586,3.36,4.742,4.677c2.152,1.315,4.873,2.459,8.169,3.423
			c3.295,0.967,7.179,1.935,11.66,2.9c5.008,1.054,9.486,2.223,13.44,3.493c3.95,1.273,7.333,2.9,10.145,4.873
			c2.81,1.978,4.96,4.397,6.456,7.246c1.491,2.857,2.24,6.393,2.24,10.608c0,4.306-0.836,8.036-2.505,11.199s-3.996,5.8-6.983,7.907
			c-2.986,2.106-6.545,3.667-10.671,4.678c-4.129,1.006-8.609,1.513-13.44,1.513c-14.211,0-25.404-4.046-35.882-12.149
			c-1.679-1.301-0.603-3.205-0.603-3.205l2.237-3.751c0.648-1.087,1.837-1.192,2.813-0.385c0,0,4.512,4.512,12.201,7.567
			c5.85,2.326,12.207,3.832,19.368,3.755c8.733-0.096,13.307-1.338,17.525-4.02c4.214-2.68,6.323-6.739,6.323-12.187
			c0-2.9-0.592-5.334-1.781-7.312c-1.185-1.976-2.962-3.688-5.335-5.139c-2.37-1.449-5.336-2.698-8.895-3.754
			c-3.557-1.057-7.663-2.107-12.317-3.162c-4.921-1.138-9.224-2.324-12.912-3.559c-3.69-1.229-6.787-2.766-9.289-4.608
			c-2.503-1.845-4.393-4.065-5.665-6.656c-1.277-2.591-1.912-5.777-1.912-9.552c0-4.303,0.811-8.146,2.437-11.532
			c1.625-3.379,3.909-6.191,6.853-8.43c2.943-2.239,6.454-3.952,10.539-5.137c4.086-1.189,8.585-1.777,13.507-1.777
			c6.146,0,11.659,0.942,16.536,2.831c4.072,1.579,7.699,3.869,11.26,6.345c2.459,1.713,0.705,3.718,0.705,3.718L269.747,71.549z"/>
	</g>
	<g>
		<path fill="#99241B" d="M295.853,149.555c-1.266,0-1.902-0.958-1.413-2.124l37.357-89.302c0.488-1.167,1.922-2.123,3.188-2.123
			h2.909c1.267,0,2.7,0.955,3.187,2.123l37.357,89.302c0.489,1.166-0.147,2.124-1.413,2.124h-5.28c-1.267,0-2.696-0.958-3.182-2.128
			l-10.36-24.995c-0.484-1.17-1.917-2.127-3.182-2.127h-37.427c-1.266,0-2.693,0.957-3.175,2.127l-10.245,24.993
			c-0.479,1.172-1.906,2.13-3.172,2.13H295.853z M337.369,68.946c-0.475-1.175-1.263-1.18-1.748-0.009l-17.47,41.997
			c-0.487,1.167,0.152,2.122,1.416,2.122h33.344c1.266,0,1.915-0.958,1.44-2.133L337.369,68.946z"/>
	</g>
	<g>
		<path fill="#99241B" d="M388.283,102.122c0-5.62,0.988-11.218,2.965-16.799c1.977-5.578,4.853-10.559,8.628-14.954
			c3.776-4.393,8.435-7.973,13.966-10.739c5.535-2.766,11.812-4.15,18.843-4.15c8.341,0,15.459,1.891,21.344,5.664
			c5.327,3.42,9.203,7.46,12.104,12.742c1.236,2.251-1.238,3.395-1.238,3.395l-3.104,1.906c-1.081,0.659-2.487,0.3-3.121-0.793
			c0,0-2.138-3.679-4.246-5.786c-2.108-2.107-4.396-3.823-6.854-5.139c-2.458-1.32-5.005-2.259-7.642-2.833
			c-2.633-0.568-5.225-0.856-7.773-0.856c-5.621,0-10.585,1.143-14.888,3.425c-4.303,2.286-7.927,5.27-10.87,8.96
			c-2.942,3.69-5.159,7.839-6.653,12.45c-1.497,4.614-2.239,9.292-2.239,14.033c0,5.184,0.899,10.146,2.698,14.891
			c1.802,4.742,4.263,8.937,7.381,12.579c3.114,3.648,6.807,6.547,11.065,8.697c4.258,2.156,8.894,3.231,13.901,3.231
			c2.634,0,5.335-0.33,8.104-0.992c2.766-0.659,5.443-1.712,8.037-3.164c2.587-1.446,4.98-3.246,7.18-5.397
			c1.812-1.777,2.977-2.916,4.235-5.367c1.234-2.409,3.425-1.331,3.425-1.331l3.472,1.752c1.124,0.581,1.547,1.965,0.942,3.077
			c0,0-2.503,4.591-5.223,7.266c-2.725,2.683-5.755,4.944-9.093,6.789c-3.339,1.844-6.873,3.253-10.604,4.214
			c-3.734,0.967-7.402,1.451-11.003,1.451c-6.413,0-12.296-1.401-17.652-4.217c-5.362-2.809-9.974-6.474-13.837-11
			c-3.865-4.523-6.875-9.661-9.024-15.416C389.358,113.96,388.283,108.097,388.283,102.122z"/>
	</g>
	<g>
		<path fill="#99241B" d="M556.014,141.385c1.264,0,2.299,1.037,2.299,2.302v3.567c0,1.263-1.035,2.301-2.299,2.301h-58.248
			c-1.264,0-2.299-1.038-2.299-2.301V58.31c0-1.268,1.035-2.303,2.299-2.303h57.061c1.266,0,2.301,1.035,2.301,2.303v3.566
			c0,1.268-1.035,2.303-2.301,2.303h-47.968c-1.266,0-2.301,1.032-2.301,2.297v29.128c0,1.268,1.035,2.304,2.301,2.304h41.248
			c1.268,0,2.301,1.034,2.301,2.298v3.172c0,1.266-1.033,2.301-2.301,2.301h-41.248c-1.266,0-2.301,1.035-2.301,2.299v31.106
			c0,1.264,1.035,2.301,2.301,2.301H556.014z"/>
	</g>
	<g>
		<path fill="#99241B" d="M666.511,149.555c-1.264,0-2.299-1.038-2.299-2.301V75.042c0-1.266-0.516-1.403-1.146-0.305
			l-31.836,55.429c-0.63,1.097-2.181,1.996-3.445,1.996h-0.799c-1.267,0-2.82-0.899-3.451-1.993l-31.958-55.432
			c-0.633-1.098-1.15-0.961-1.15,0.305v72.212c0,1.263-1.034,2.301-2.301,2.301h-4.489c-1.264,0-2.299-1.038-2.299-2.301V58.31
			c0-1.268,1.035-2.303,2.299-2.303h4.753c1.268,0,2.816,0.899,3.443,1.996l34.345,60.042c0.625,1.1,1.657,1.1,2.28,0l34.348-60.042
			c0.627-1.097,2.176-1.996,3.442-1.996H671c1.267,0,2.3,1.035,2.3,2.303v88.945c0,1.263-1.033,2.301-2.3,2.301H666.511z"/>
	</g>
	<g>
		<path fill="#99241B" d="M687.163,149.555c-1.265,0-1.9-0.958-1.412-2.124l37.356-89.302c0.488-1.167,1.924-2.123,3.188-2.123
			h2.908c1.265,0,2.701,0.955,3.189,2.123l37.356,89.302c0.486,1.166-0.146,2.124-1.412,2.124h-5.28
			c-1.267,0-2.698-0.958-3.183-2.128l-10.358-24.995c-0.486-1.17-1.917-2.127-3.185-2.127h-37.426c-1.268,0-2.695,0.957-3.174,2.127
			l-10.246,24.993c-0.479,1.172-1.906,2.13-3.173,2.13H687.163z M728.678,68.946c-0.473-1.175-1.26-1.18-1.746-0.009l-17.471,41.997
			c-0.483,1.167,0.156,2.122,1.42,2.122h33.342c1.268,0,1.913-0.958,1.44-2.133L728.678,68.946z"/>
	</g>
</g>
</svg>
